# This file uses centimeters as units for non-parametric coordinates.

mtllib Table.mtl
g default
v 71.631081 -0.102459 -31.492968
v 78.108978 -0.102459 -31.492968
v 79.214996 78.779617 -30.325047
v 70.525070 78.779617 -30.325047
v 70.525070 78.779617 -39.501431
v 79.214996 78.779617 -39.501431
v 78.108978 -0.102459 -38.333508
v 71.631081 -0.102459 -38.333508
v -71.631065 -0.102459 -31.492968
v -70.525047 78.779617 -30.325047
v -79.214973 78.779617 -30.325047
v -78.108986 -0.102459 -31.492968
v -70.525047 78.779617 -39.501431
v -71.631065 -0.102459 -38.333508
v -78.108986 -0.102459 -38.333508
v -79.214973 78.779617 -39.501431
v 71.631081 -0.102459 31.492981
v 70.525070 78.779617 30.325050
v 79.214996 78.779617 30.325050
v 78.108978 -0.102459 31.492981
v 70.525070 78.779617 39.501434
v 71.631081 -0.102459 38.333511
v 78.108978 -0.102459 38.333511
v 79.214996 78.779617 39.501434
v -71.631065 -0.102459 31.492981
v -78.108986 -0.102459 31.492981
v -79.214973 78.779617 30.325050
v -70.525047 78.779617 30.325050
v -70.525047 78.779617 39.501434
v -79.214973 78.779617 39.501434
v -78.108986 -0.102459 38.333511
v -71.631065 -0.102459 38.333511
v -85.681610 77.595779 45.711090
v 85.681610 77.595779 45.711090
v 85.681610 81.872437 45.711090
v -85.681610 81.872437 45.711090
v 85.681610 81.872437 -45.711090
v -85.681610 81.872437 -45.711090
v 85.681610 77.595779 -45.711090
v -85.681610 77.595779 -45.711090
v 73.341682 67.462646 -34.052307
v 76.603874 67.462646 -34.052307
v 76.603874 67.462646 34.052307
v 73.341682 67.462646 34.052307
v 76.603874 79.017487 34.052307
v 76.603874 79.017487 -34.052307
v 73.341682 79.017487 34.052307
v 73.341682 79.017487 -34.052307
v -72.843102 67.462646 -34.052307
v -72.843102 67.462646 34.052307
v -76.105286 67.462646 34.052307
v -76.105286 67.462646 -34.052307
v -76.105293 79.017487 34.052307
v -76.105293 79.017487 -34.052307
v -72.843102 79.017487 -34.052307
v -72.843102 79.017487 34.052307
v -72.631393 67.462646 -33.051609
v -72.631401 67.462646 -36.313793
v 72.631393 67.462646 -36.313793
v 72.631401 67.462646 -33.051609
v 72.631393 79.017487 -36.313797
v -72.631401 79.017487 -36.313797
v 72.631401 79.017487 -33.051605
v -72.631393 79.017487 -33.051605
v -72.631393 67.462646 33.051609
v 72.631401 67.462646 33.051609
v 72.631393 67.462646 36.313793
v -72.631401 67.462646 36.313793
v 72.631393 79.017487 36.313797
v -72.631401 79.017487 36.313797
v -72.631393 79.017487 33.051605
v 72.631401 79.017487 33.051605
vt 0.994805 0.346245
vt 0.993697 0.371636
vt 0.684281 0.362473
vt 0.685768 0.328411
vt 0.684226 0.432562
vt 0.683748 0.398472
vt 0.993300 0.398472
vt 0.993656 0.423885
vt 0.628198 0.250888
vt 0.602783 0.250888
vt 0.602783 0.224050
vt 0.628198 0.224050
vt 0.994805 0.450698
vt 0.685768 0.468532
vt 0.993630 0.300483
vt 0.684592 0.318316
vt 0.683106 0.284254
vt 0.992522 0.275091
vt 0.683051 0.214165
vt 0.992481 0.222843
vt 0.992125 0.248256
vt 0.682573 0.248256
vt 0.670265 0.188217
vt 0.670265 0.215055
vt 0.644850 0.215055
vt 0.644850 0.188217
vt 0.684593 0.178195
vt 0.993630 0.196029
vt 0.683988 0.493644
vt 0.993026 0.475810
vt 0.994512 0.509872
vt 0.685097 0.519035
vt 0.994567 0.579962
vt 0.685138 0.571283
vt 0.685494 0.545870
vt 0.995045 0.545871
vt 0.662723 0.224050
vt 0.662723 0.250888
vt 0.637307 0.250888
vt 0.637307 0.224050
vt 0.993026 0.615931
vt 0.683988 0.598097
vt 0.681917 0.753958
vt 0.683025 0.728567
vt 0.992441 0.737731
vt 0.990954 0.771793
vt 0.992496 0.667642
vt 0.992974 0.701732
vt 0.683422 0.701732
vt 0.683066 0.676319
vt 0.630438 0.210706
vt 0.605023 0.210706
vt 0.605023 0.183868
vt 0.630438 0.183868
vt 0.681917 0.649505
vt 0.990954 0.631672
vt 0.677426 0.022256
vt 0.005094 0.022256
vt 0.005094 0.005477
vt 0.677426 0.005477
vt 0.005971 0.636721
vt 0.678299 0.636721
vt 0.678299 0.995408
vt 0.005971 0.995408
vt 0.679720 0.043559
vt 0.007390 0.043559
vt 0.007390 0.026780
vt 0.679720 0.026780
vt 0.005971 0.269901
vt 0.678299 0.269901
vt 0.678299 0.628588
vt 0.005971 0.628588
vt 0.996909 0.067153
vt 0.638222 0.067153
vt 0.638222 0.050374
vt 0.996909 0.050374
vt 0.638222 0.076267
vt 0.996909 0.076267
vt 0.996909 0.093046
vt 0.638222 0.093046
vt 0.684912 0.948444
vt 0.684912 0.935646
vt 0.952115 0.935646
vt 0.952115 0.948444
vt 0.952115 0.890311
vt 0.684912 0.890311
vt 0.952115 0.993779
vt 0.684912 0.993779
vt 0.684913 0.823337
vt 0.952115 0.823337
vt 0.952115 0.836136
vt 0.684913 0.836136
vt 0.952115 0.881470
vt 0.684913 0.881470
vt 0.684912 0.778002
vt 0.952115 0.778002
vt 0.578451 0.094768
vt 0.578451 0.107566
vt 0.008524 0.107566
vt 0.008524 0.094768
vt 0.008524 0.152901
vt 0.578451 0.152901
vt 0.008524 0.049433
vt 0.578451 0.049433
vt 0.575645 0.219759
vt 0.005719 0.219759
vt 0.005719 0.206960
vt 0.575645 0.206960
vt 0.005719 0.161625
vt 0.575645 0.161625
vt 0.575645 0.265093
vt 0.005719 0.265093
vn 0.000000 -0.014804 0.999890
vn 0.000000 -0.014804 0.999891
vn 0.000000 -0.014804 0.999891
vn 0.000000 -0.014804 0.999891
vn 0.000000 -0.014804 -0.999891
vn 0.000000 -0.014804 -0.999891
vn 0.000000 -0.014804 -0.999891
vn 0.000000 -0.014804 -0.999890
vn 0.000000 -1.000000 0.000000
vn 0.000000 -1.000000 0.000000
vn 0.000000 -1.000000 0.000000
vn 0.000000 -1.000000 0.000000
vn 0.999902 -0.014020 0.000000
vn 0.999902 -0.014020 0.000000
vn 0.999902 -0.014020 0.000000
vn 0.999902 -0.014020 0.000000
vn -0.999902 -0.014020 0.000000
vn -0.999902 -0.014020 0.000000
vn -0.999902 -0.014020 0.000000
vn -0.999902 -0.014020 0.000000
vn 0.000000 -0.014804 0.999891
vn 0.000000 -0.014804 0.999891
vn 0.000000 -0.014804 0.999891
vn 0.000000 -0.014804 0.999890
vn 0.000000 -0.014804 -0.999891
vn 0.000000 -0.014804 -0.999891
vn 0.000000 -0.014804 -0.999890
vn 0.000000 -0.014804 -0.999891
vn 0.000000 -1.000000 0.000000
vn 0.000000 -1.000000 0.000000
vn 0.000000 -1.000000 0.000000
vn 0.000000 -1.000000 0.000000
vn -0.999902 -0.014019 0.000000
vn -0.999902 -0.014019 0.000000
vn -0.999902 -0.014019 0.000000
vn -0.999902 -0.014019 0.000000
vn 0.999902 -0.014020 0.000000
vn 0.999902 -0.014020 0.000000
vn 0.999902 -0.014020 0.000000
vn 0.999902 -0.014020 0.000000
vn 0.000000 -0.014804 -0.999890
vn 0.000000 -0.014804 -0.999891
vn 0.000000 -0.014804 -0.999891
vn 0.000000 -0.014804 -0.999891
vn 0.000000 -0.014804 0.999891
vn 0.000000 -0.014804 0.999890
vn 0.000000 -0.014804 0.999891
vn 0.000000 -0.014804 0.999891
vn 0.000000 -1.000000 0.000000
vn 0.000000 -1.000000 0.000000
vn 0.000000 -1.000000 0.000000
vn 0.000000 -1.000000 0.000000
vn 0.999902 -0.014020 0.000000
vn 0.999902 -0.014020 0.000000
vn 0.999902 -0.014020 0.000000
vn 0.999902 -0.014020 0.000000
vn -0.999902 -0.014020 0.000000
vn -0.999902 -0.014020 0.000000
vn -0.999902 -0.014020 0.000000
vn -0.999902 -0.014020 0.000000
vn 0.000000 -0.014804 -0.999891
vn 0.000000 -0.014804 -0.999890
vn 0.000000 -0.014804 -0.999891
vn 0.000000 -0.014804 -0.999891
vn 0.000000 -0.014804 0.999891
vn 0.000000 -0.014804 0.999891
vn 0.000000 -0.014804 0.999890
vn 0.000000 -0.014804 0.999891
vn 0.000000 -1.000000 0.000000
vn 0.000000 -1.000000 0.000000
vn 0.000000 -1.000000 0.000000
vn 0.000000 -1.000000 0.000000
vn -0.999902 -0.014019 0.000000
vn -0.999902 -0.014019 0.000000
vn -0.999902 -0.014019 0.000000
vn -0.999902 -0.014019 0.000000
vn 0.999902 -0.014020 0.000000
vn 0.999902 -0.014020 0.000000
vn 0.999902 -0.014020 0.000000
vn 0.999902 -0.014020 0.000000
vn 0.000000 0.000000 1.000000
vn 0.000000 0.000000 1.000000
vn 0.000000 0.000000 1.000000
vn 0.000000 0.000000 1.000000
vn 0.000000 1.000000 0.000000
vn 0.000000 1.000000 0.000000
vn 0.000000 1.000000 0.000000
vn 0.000000 1.000000 0.000000
vn 0.000000 0.000000 -1.000000
vn 0.000000 0.000000 -1.000000
vn 0.000000 0.000000 -1.000000
vn 0.000000 0.000000 -1.000000
vn 0.000000 -1.000000 0.000000
vn 0.000000 -1.000000 0.000000
vn 0.000000 -1.000000 0.000000
vn 0.000000 -1.000000 0.000000
vn 1.000000 0.000000 0.000000
vn 1.000000 0.000000 0.000000
vn 1.000000 0.000000 0.000000
vn 1.000000 0.000000 0.000000
vn -1.000000 0.000000 0.000000
vn -1.000000 0.000000 0.000000
vn -1.000000 0.000000 0.000000
vn -1.000000 0.000000 0.000000
vn 0.000000 -1.000000 0.000000
vn 0.000000 -1.000000 0.000000
vn 0.000000 -1.000000 0.000000
vn 0.000000 -1.000000 0.000000
vn 1.000000 0.000000 0.000000
vn 1.000000 0.000000 0.000000
vn 1.000000 0.000000 0.000000
vn 1.000000 0.000000 0.000000
vn -1.000000 0.000000 0.000000
vn -1.000000 0.000000 0.000000
vn -1.000000 0.000000 0.000000
vn -1.000000 0.000000 0.000000
vn 0.000000 -1.000000 0.000000
vn 0.000000 -1.000000 0.000000
vn 0.000000 -1.000000 0.000000
vn 0.000000 -1.000000 0.000000
vn -1.000000 -0.000001 0.000000
vn -1.000000 -0.000001 0.000000
vn -1.000000 -0.000001 0.000000
vn -1.000000 -0.000001 0.000000
vn 1.000000 0.000000 0.000000
vn 1.000000 0.000000 0.000000
vn 1.000000 0.000000 0.000000
vn 1.000000 0.000000 0.000000
vn 0.000000 -1.000000 0.000000
vn 0.000000 -1.000000 0.000000
vn 0.000000 -1.000000 0.000000
vn 0.000000 -1.000000 0.000000
vn 0.000000 -0.000000 -1.000000
vn 0.000000 -0.000000 -1.000000
vn 0.000000 -0.000000 -1.000000
vn 0.000000 -0.000000 -1.000000
vn 0.000000 -0.000000 1.000000
vn 0.000000 -0.000000 1.000000
vn 0.000000 -0.000000 1.000000
vn 0.000000 -0.000000 1.000000
vn 0.000000 -1.000000 0.000000
vn 0.000000 -1.000000 0.000000
vn 0.000000 -1.000000 0.000000
vn 0.000000 -1.000000 0.000000
vn 0.000000 -0.000000 1.000000
vn 0.000000 -0.000000 1.000000
vn 0.000000 -0.000000 1.000000
vn 0.000000 -0.000000 1.000000
vn 0.000000 -0.000000 -1.000000
vn 0.000000 -0.000000 -1.000000
vn 0.000000 -0.000000 -1.000000
vn 0.000000 -0.000000 -1.000000
s off
g Table
usemtl blinn3SG
f 1/1/1 2/2/2 3/3/3 4/4/4
f 5/5/5 6/6/6 7/7/7 8/8/8
f 8/9/9 7/10/10 2/11/11 1/12/12
f 2/2/13 7/7/14 6/6/15 3/3/16
f 8/8/17 1/13/18 4/14/19 5/5/20
f 9/15/21 10/16/22 11/17/23 12/18/24
f 13/19/25 14/20/26 15/21/27 16/22/28
f 14/23/29 9/24/30 12/25/31 15/26/32
f 12/18/33 11/17/34 16/22/35 15/21/36
f 14/20/37 13/19/38 10/27/39 9/28/40
f 17/29/41 18/30/42 19/31/43 20/32/44
f 21/33/45 22/34/46 23/35/47 24/36/48
f 22/37/49 17/38/50 20/39/51 23/40/52
f 20/32/53 19/31/54 24/36/55 23/35/56
f 22/34/57 21/33/58 18/41/59 17/42/60
f 25/43/61 26/44/62 27/45/63 28/46/64
f 29/47/65 30/48/66 31/49/67 32/50/68
f 32/51/69 31/52/70 26/53/71 25/54/72
f 26/44/73 31/49/74 30/48/75 27/45/76
f 32/50/77 25/55/78 28/56/79 29/47/80
f 33/57/81 34/58/82 35/59/83 36/60/84
f 36/61/85 35/62/86 37/63/87 38/64/88
f 38/65/89 37/66/90 39/67/91 40/68/92
f 40/69/93 39/70/94 34/71/95 33/72/96
f 34/73/97 39/74/98 37/75/99 35/76/100
f 40/77/101 33/78/102 36/79/103 38/80/104
f 41/81/105 42/82/106 43/83/107 44/84/108
f 45/85/109 43/83/110 42/82/111 46/86/112
f 44/84/113 47/87/114 48/88/115 41/81/116
f 49/89/117 50/90/118 51/91/119 52/92/120
f 53/93/121 54/94/122 52/92/123 51/91/124
f 50/90/125 49/89/126 55/95/127 56/96/128
f 57/97/129 58/98/130 59/99/131 60/100/132
f 61/101/133 59/99/134 58/98/135 62/102/136
f 60/100/137 63/103/138 64/104/139 57/97/140
f 65/105/141 66/106/142 67/107/143 68/108/144
f 69/109/145 70/110/146 68/108/147 67/107/148
f 66/106/149 65/105/150 71/111/151 72/112/152
